<svg width="44" height="42" viewBox="0 0 44 42" fill="none" xmlns="http://www.w3.org/2000/svg">
<path fill-rule="evenodd" clip-rule="evenodd" d="M14.4674 0.913086H37.1848C40.9487 0.913086 44 4.28555 44 8.44569V33.5544C44 37.7145 40.9487 41.087 37.1848 41.087H14.4674C10.7035 41.087 7.65219 37.7145 7.65219 33.5544L7.65219 8.44569C7.65219 4.28555 10.7035 0.913086 14.4674 0.913086Z" fill="#0D6EFD" fill-opacity="0.2"/>
<path fill-rule="evenodd" clip-rule="evenodd" d="M8.13044 0.913086H32.0435C36.0055 0.913086 39.2174 4.28555 39.2174 8.44569V33.5544C39.2174 37.7145 36.0055 41.087 32.0435 41.087H8.13044C4.1684 41.087 0.956527 37.7145 0.956528 33.5544L0.956528 8.44569C0.956527 4.28555 4.1684 0.913086 8.13044 0.913086Z" fill="#0D6EFD"/>
<g opacity="0.7">
<path opacity="0.3" fill-rule="evenodd" clip-rule="evenodd" d="M15.2902 17.3563H14.3097C14.2591 17.3563 14.1842 17.4266 14.1813 17.4731L13.4589 29.1478L26.9548 29.1452L26.2253 17.4731C26.2225 17.4284 26.1457 17.3563 26.0969 17.3563H25.1164V19.3216C25.1164 19.8643 24.6765 20.3042 24.1338 20.3042C23.5911 20.3042 23.1512 19.8643 23.1512 19.3216V17.3563H17.2554V19.3216C17.2554 19.8643 16.8155 20.3042 16.2728 20.3042C15.7301 20.3042 15.2902 19.8643 15.2902 19.3216V17.3563Z" fill="white"/>
<path fill-rule="evenodd" clip-rule="evenodd" d="M20.2033 10.4783C22.9153 10.4783 25.1164 12.6796 25.1164 15.3891L26.0969 15.3914C27.1835 15.3914 28.1192 16.2704 28.1867 17.3508L28.9244 29.1539C28.9921 30.2361 28.1698 31.1133 27.0865 31.1133H13.3201C12.2374 31.1133 11.4146 30.2344 11.4821 29.1539L12.2198 17.3508C12.2875 16.2686 13.2213 15.3914 14.3096 15.3914H15.2902C15.2902 12.6781 17.493 10.4783 20.2033 10.4783ZM23.1511 15.3915C23.1511 13.765 21.8299 12.4436 20.2033 12.4436C18.5778 12.4436 17.2554 13.7642 17.2554 15.3892L23.1511 15.3915ZM15.2902 17.3566H14.3096C14.2591 17.3566 14.1842 17.4269 14.1813 17.4733L13.4589 29.148L26.9548 29.1455L26.2253 17.4733C26.2225 17.4286 26.1457 17.3566 26.0969 17.3566H25.1164V19.3218C25.1164 19.8645 24.6765 20.3044 24.1338 20.3044C23.5911 20.3044 23.1512 19.8645 23.1512 19.3218V17.3566H17.2554V19.3218C17.2554 19.8645 16.8155 20.3044 16.2728 20.3044C15.7301 20.3044 15.2902 19.8645 15.2902 19.3218V17.3566Z" fill="white"/>
</g>
</svg>
