<svg width="22" height="15" viewBox="0 0 22 15" fill="none" xmlns="http://www.w3.org/2000/svg">
<path fill-rule="evenodd" clip-rule="evenodd" d="M11 0.666504C6.41669 0.666504 2.50252 3.51734 0.916687 7.5415C2.50252 11.5657 6.41669 14.4165 11 14.4165C15.5834 14.4165 19.4975 11.5657 21.0834 7.5415C19.4975 3.51734 15.5834 0.666504 11 0.666504ZM11 12.1248C8.47002 12.1248 6.41669 10.0715 6.41669 7.5415C6.41669 5.0115 8.47002 2.95817 11 2.95817C13.53 2.95817 15.5834 5.0115 15.5834 7.5415C15.5834 10.0715 13.53 12.1248 11 12.1248ZM11 4.7915C9.47835 4.7915 8.25002 6.01984 8.25002 7.5415C8.25002 9.06317 9.47835 10.2915 11 10.2915C12.5217 10.2915 13.75 9.06317 13.75 7.5415C13.75 6.01984 12.5217 4.7915 11 4.7915Z" fill="#A9ACB0"/>
</svg>
