<svg width="16" height="21" viewBox="0 0 16 21" fill="none" xmlns="http://www.w3.org/2000/svg">
<path d="M0.00852269 21V0.636363H7.64489C9.20928 0.636363 10.5218 0.908143 11.5824 1.4517C12.6496 1.99526 13.455 2.75757 13.9986 3.73864C14.5488 4.71307 14.8239 5.84991 14.8239 7.14915C14.8239 8.45502 14.5455 9.58854 13.9886 10.5497C13.4384 11.5043 12.6264 12.2434 11.5526 12.767C10.4787 13.2841 9.15956 13.5426 7.59517 13.5426H2.15625V10.4801H7.09801C8.01278 10.4801 8.76184 10.3542 9.34517 10.1023C9.9285 9.84375 10.3594 9.46922 10.6378 8.97869C10.9228 8.48153 11.0653 7.87168 11.0653 7.14915C11.0653 6.42661 10.9228 5.81013 10.6378 5.29972C10.3527 4.78267 9.91856 4.39157 9.33523 4.12642C8.75189 3.85464 7.99953 3.71875 7.07812 3.71875H3.69744V21H0.00852269ZM10.5284 11.7727L15.5696 21H11.4531L6.50142 11.7727H10.5284Z" fill="#4CA7A7" fill-opacity="0.6"/>
</svg>
